<svg width="128" height="42" viewBox="0 0 128 42" fill="none" xmlns="http://www.w3.org/2000/svg" id="svg1414367776_4628">
<path fill-rule="evenodd" clip-rule="evenodd" d="M31.5702 17.2907C31.5696 17.321 31.569 17.3587 31.5682 17.3825L31.5651 17.3825C31.5639 17.3509 31.5627 17.2839 31.5615 17.1622L31.5365 14.8577H29.2481H16.3812V19.5026H26.7872C26.4372 21.8969 25.4815 23.8177 24.0605 25.2082C22.2399 26.9899 19.5967 27.9607 16.4317 27.9945C16.2227 27.9968 16.2587 27.9958 16.331 27.9939H16.3311H16.3311C16.4345 27.9912 16.6119 27.9866 16.2534 27.9866C13.0322 27.9866 10.1333 26.6861 8.04117 24.584C5.93996 22.4727 4.64526 19.547 4.64526 16.3103C4.64526 13.0748 5.93965 10.1524 8.03965 8.04361C10.1314 5.9433 13.031 4.64496 16.2534 4.64496C17.7727 4.64496 19.2217 4.93378 20.549 5.45939C21.9353 6.00813 23.1864 6.80826 24.244 7.80196L27.4193 4.42704C25.9268 3.02491 24.1777 1.90217 22.2545 1.1407C20.395 0.404783 18.3701 0 16.2534 0C11.7557 0 7.69604 1.82517 4.75574 4.77765C1.81361 7.73165 0 11.8096 0 16.3103C0 20.811 1.81391 24.8926 4.75696 27.85C7.69696 30.8043 11.756 32.6316 16.2534 32.6316C16.4466 32.6316 16.4141 32.631 16.3492 32.6299L16.3488 32.6299C16.3172 32.6294 16.278 32.6287 16.2534 32.6279C16.2269 32.627 16.2175 32.6261 16.2534 32.6249C16.2847 32.624 16.3499 32.6227 16.4683 32.6215C20.8627 32.5746 24.6193 31.1421 27.3085 28.5107C29.9993 25.8772 31.5627 22.1036 31.5627 17.3825H31.5651C31.5663 17.4181 31.5673 17.4087 31.5682 17.3825H31.5718C31.5718 17.197 31.5713 17.2283 31.5702 17.2907ZM43.8055 15.8621C45.4734 15.8621 46.9817 16.5582 48.0719 17.6833C49.1636 18.8103 49.8389 20.3753 49.8389 22.1113C49.8389 23.8473 49.1636 25.4126 48.0719 26.5393C46.9817 27.6644 45.4734 28.3605 43.8055 28.3605C42.1374 28.3605 40.6291 27.6644 39.5389 26.5393C38.4472 25.4126 37.7718 23.8473 37.7718 22.1113C37.7718 20.3753 38.4472 18.8103 39.5389 17.6833C40.6291 16.5582 42.1374 15.8621 43.8055 15.8621ZM51.2615 14.7476C49.3517 12.8555 46.7154 11.6849 43.8055 11.6849C40.8957 11.6849 38.2591 12.8555 36.3493 14.7476C34.4411 16.6382 33.2608 19.2422 33.2608 22.1113C33.2608 24.9804 34.4411 27.5844 36.3493 29.475C38.2591 31.3674 40.8957 32.5376 43.8055 32.5376C46.7154 32.5376 49.3517 31.3674 51.2615 29.475C53.17 27.5844 54.3503 24.9804 54.3503 22.1113C54.3503 19.2422 53.17 16.6382 51.2615 14.7476ZM70.751 17.6833C69.6608 16.5582 68.1525 15.8621 66.4847 15.8621C64.8165 15.8621 63.3082 16.5582 62.218 17.6833C61.1266 18.8103 60.4513 20.3753 60.4513 22.1113C60.4513 23.8473 61.1266 25.4126 62.218 26.5393C63.3082 27.6644 64.8165 28.3605 66.4847 28.3605C68.1525 28.3605 69.6608 27.6644 70.751 26.5393C71.8427 25.4126 72.5181 23.8473 72.5181 22.1113C72.5181 20.3753 71.8427 18.8103 70.751 17.6833ZM66.4847 11.6849C69.3945 11.6849 72.0308 12.8555 73.9409 14.7476C75.8491 16.6382 77.0294 19.2422 77.0294 22.1113C77.0294 24.9804 75.8491 27.5844 73.9409 29.475C72.0308 31.3674 69.3945 32.5376 66.4847 32.5376C63.5748 32.5376 60.9385 31.3674 59.0284 29.475C57.1202 27.5844 55.9396 24.9804 55.9396 22.1113C55.9396 19.2422 57.1202 16.6382 59.0284 14.7476C60.9385 12.8555 63.5748 11.6849 66.4847 11.6849ZM88.9833 15.8621C90.572 15.8621 92.0089 16.5582 93.0473 17.6833C94.0872 18.8103 94.7303 20.3753 94.7303 22.1113C94.7303 23.8473 94.0872 25.4126 93.0473 26.5393C92.0089 27.6644 90.572 28.4752 88.9833 28.4752C85.6014 28.4752 83.2363 25.6195 83.2363 22.1113C83.2363 20.3753 83.8794 18.8103 84.9194 17.6833C85.9578 16.5582 87.3943 15.8621 88.9833 15.8621ZM94.2939 14.0878C92.7466 12.5873 91.0249 11.6849 88.1859 11.6849C83.4317 11.6849 78.6455 16.3162 78.6455 22.1113C78.6455 24.9804 79.7135 27.5844 81.4401 29.475C83.1682 31.3674 85.9946 32.5376 88.6272 32.5376C90.9415 32.5376 92.7228 31.6334 94.2939 30.1296V32.4123C94.2939 35.7942 91.517 37.8467 89.3035 37.8467C86.1791 37.8467 84.5085 36.5706 83.3891 34.0938L79.4353 35.8757C80.3776 37.9608 81.7511 39.4412 83.3611 40.4321C85.1708 41.546 87.2412 41.9435 89.3035 41.9435C91.5618 41.9435 93.8428 40.9906 95.5408 39.4807C97.3036 37.9133 98.6053 34.9085 98.6053 32.138V12.2729H94.2939V14.0878ZM101.393 31.9402H105.844V1.3423H101.393V31.9402ZM123.349 25.5975C121.008 29.4977 114.833 29.4518 113.081 25.2767C115.778 24.1905 118.468 23.0912 121.158 21.992C123.158 21.1747 125.158 20.3574 127.161 19.5456C125.607 15.5412 123.482 13.2373 120.863 12.2862C116.83 10.8217 112.921 12.187 110.387 14.8723C107.281 18.1641 106.322 25.1078 110.804 29.6332C112.639 31.4851 115.094 32.6282 118.144 32.6249C121.57 32.606 124.715 31.1245 126.874 27.9605L123.349 25.5975ZM121.853 17.9292L112.372 21.7475C112.233 19.7394 113.312 17.9626 114.544 16.9218C117.749 14.7356 120.18 15.7774 121.853 17.9292Z" fill="black"></path>
</svg>