<svg width="157" height="41" viewBox="0 0 157 41" fill="none" xmlns="http://www.w3.org/2000/svg" id="svg-913074138_2605">
<path fill-rule="evenodd" clip-rule="evenodd" d="M153.829 0.275635H119.977C118.359 0.275635 117.045 1.55784 117.045 3.13798V37.1338C117.045 38.7156 118.359 39.9995 119.977 39.9995H153.829C155.45 39.9995 156.77 38.7156 156.77 37.1338V3.13798C156.77 1.55784 155.45 0.275635 153.829 0.275635ZM125.882 5.74466C127.766 5.74466 129.296 7.27541 129.296 9.15983C129.296 11.0459 127.766 12.5767 125.882 12.5767C123.993 12.5767 122.465 11.0459 122.465 9.15983C122.465 7.27541 123.993 5.74466 125.882 5.74466ZM128.827 34.1256H122.934V15.1681H128.827V34.1256ZM132.522 15.1681H138.173V17.7585H138.252C139.039 16.268 140.961 14.697 143.827 14.697C149.794 14.697 150.895 18.6236 150.895 23.7273V34.1256H145.007V24.9066C145.007 22.7083 144.967 19.8804 141.946 19.8804C138.88 19.8804 138.409 22.2752 138.409 24.7477V34.1256H132.522V15.1681ZM23.1254 5.73616C25.0115 5.73616 26.5422 7.26692 26.5422 9.15133C26.5422 11.0391 25.0115 12.5654 23.1254 12.5654C21.2415 12.5654 19.7108 11.0391 19.7108 9.15133C19.7108 7.26692 21.2415 5.73616 23.1254 5.73616ZM26.0705 34.1171V15.1596H20.1803V34.1171H26.0705ZM0 6.1507V34.1248H17.4737V28.4704H6.12828V6.1507H0ZM56.5789 6.14874H50.6911V34.1247H56.5789V24.7534H56.6556L62.9047 34.1247H70.306L62.7427 23.9286L70.4674 15.1512H63.2489L56.5789 22.8679V6.14874ZM29.328 15.1623H34.9818V17.7538H35.0607C35.8452 16.2616 37.7697 14.6917 40.6356 14.6917C46.6047 14.6917 47.7037 18.6178 47.7037 23.721V34.1171H41.8138V24.8997C41.8138 22.7003 41.7732 19.8743 38.7495 19.8743C35.6877 19.8743 35.2179 22.2699 35.2179 24.7425V34.1171H29.328V15.1623ZM79.8006 34.6063C82.8651 34.6063 85.9652 33.2309 87.8502 30.8353L83.728 27.8119C82.7459 29.1468 81.4513 30.1288 79.5266 30.1288C77.2488 30.1288 75.5578 28.6761 75.0902 26.4378H88.7539V24.5923C88.7539 18.5073 85.3021 14.5812 79.8006 14.5812C73.9123 14.5812 69.2003 18.5073 69.2003 24.5923C69.2003 30.6781 73.9123 34.6063 79.8006 34.6063ZM79.2499 18.8218C81.3724 18.8218 82.9035 20.4712 82.8651 22.4345H75.0902C75.2455 20.5887 76.6601 18.8218 79.2499 18.8218ZM111.155 34.1144H105.735V31.6005H105.658C104.752 32.9743 102.477 34.5853 99.8062 34.5853C94.1505 34.5853 90.4211 30.5034 90.4211 24.7307C90.4211 19.4294 93.719 14.5607 99.1372 14.5607C101.574 14.5607 103.851 15.2278 105.186 17.0733H105.262V6.1486H111.155V34.1144ZM101.021 19.7439C98.0779 19.7439 96.3113 21.7086 96.3113 24.5726C96.3113 27.4413 98.0779 29.4018 101.021 29.4018C103.967 29.4018 105.735 27.4413 105.735 24.5726C105.735 21.7086 103.967 19.7439 101.021 19.7439Z" fill="black"></path>
</svg>